<?xml version="1.0" encoding="UTF-8" standalone="no"?>
<svg
   class="icon"
   width="200px"
   height="200.00px"
   viewBox="0 0 1024 1024"
   version="1.1"
   id="svg79"
   sodipodi:docname="call.svg"
   inkscape:version="1.2.2 (b0a8486541, 2022-12-01)"
   xmlns:inkscape="http://www.inkscape.org/namespaces/inkscape"
   xmlns:sodipodi="http://sodipodi.sourceforge.net/DTD/sodipodi-0.dtd"
   xmlns="http://www.w3.org/2000/svg"
   xmlns:svg="http://www.w3.org/2000/svg">
  <defs
     id="defs83" />
  <sodipodi:namedview
     id="namedview81"
     pagecolor="#ffffff"
     bordercolor="#000000"
     borderopacity="0.25"
     inkscape:showpageshadow="2"
     inkscape:pageopacity="0.0"
     inkscape:pagecheckerboard="0"
     inkscape:deskcolor="#d1d1d1"
     showgrid="false"
     inkscape:zoom="5.89"
     inkscape:cx="100"
     inkscape:cy="100"
     inkscape:window-width="3440"
     inkscape:window-height="1387"
     inkscape:window-x="0"
     inkscape:window-y="0"
     inkscape:window-maximized="1"
     inkscape:current-layer="svg79" />
  <path
     d="m 774.82734,949.38611 c -35.97618,0 -82.76001,-10.47762 -143.9047,-39.22032 a 22.479495,21.49855 0 0 1 19.69066,-38.65394 c 84.38856,39.78666 148.0501,45.73343 178.84452,16.99074 l 84.38855,-80.70607 a 72.840647,69.662078 0 0 0 21.91142,-50.97225 62.77324,60.033985 0 0 0 -21.46726,-42.90164 L 786.2272,615.65945 a 69.287445,66.263928 0 0 0 -95.04817,4.53086 L 638.32515,670.7378 A 22.207514,21.238439 0 0 1 611.38003,673.99436 768.97221,735.41633 0 0 1 457.40792,560.01474 847.58681,810.6004 0 0 1 340.15225,414.74382 21.911414,20.955259 0 0 1 342.373,389.39928 l 50.63313,-54.65357 a 69.435495,66.405517 0 0 0 5.92201,-91.46688 L 301.36313,125.19311 a 71.212096,68.104591 0 0 0 -97.71307,-11.75194 c -7.4025,8.07061 -27.98147,28.31792 -90.45861,86.51124 -66.474493,62.7242 40.26963,263.49823 242.35802,456.9096 A 1565.7779,1497.4515 0 0 0 495.90095,776.36364 22.207514,21.238439 0 0 1 468.65974,809.77878 1592.2788,1522.796 0 0 1 324.16284,687.44537 C 135.54702,506.35229 -21.089983,267.49065 81.212627,169.79383 114.37585,138.78572 162.93628,92.910682 170.04269,85.548032 a 21.023113,20.105721 0 0 1 4.29346,-4.389288 115.47908,110.43988 0 0 1 162.85511,17.6987 l 97.2689,117.236186 a 114.14662,109.16557 0 0 1 -8.73495,147.39476 l -38.78913,41.62735 a 760.3853,727.20414 0 0 0 102.15457,124.31565 724.11303,692.51468 0 0 0 130.87629,99.11271 l 40.56572,-38.65396 a 113.99858,109.02398 0 0 1 154.56431,-7.36266 l 128.65552,99.11272 a 107.18827,102.51086 0 0 1 36.71643,74.61771 118.44008,113.27167 0 0 1 -34.93982,82.26355 l -84.53661,80.84765 a 118.44008,113.27167 0 0 1 -86.16515,30.017 z"
     fill="#333333"
     id="path75"
     style="stroke-width:1.69668" />
</svg>
