<?xml version="1.0" encoding="UTF-8" standalone="no"?>
<svg
   class="icon"
   width="200px"
   height="200.00px"
   viewBox="0 0 1024 1024"
   version="1.1"
   id="svg163"
   sodipodi:docname="text-to-voice.svg"
   inkscape:version="1.2.2 (b0a8486541, 2022-12-01)"
   xmlns:inkscape="http://www.inkscape.org/namespaces/inkscape"
   xmlns:sodipodi="http://sodipodi.sourceforge.net/DTD/sodipodi-0.dtd"
   xmlns="http://www.w3.org/2000/svg"
   xmlns:svg="http://www.w3.org/2000/svg">
  <defs
     id="defs167" />
  <sodipodi:namedview
     id="namedview165"
     pagecolor="#ffffff"
     bordercolor="#000000"
     borderopacity="0.25"
     inkscape:showpageshadow="2"
     inkscape:pageopacity="0.0"
     inkscape:pagecheckerboard="0"
     inkscape:deskcolor="#d1d1d1"
     showgrid="false"
     inkscape:zoom="5.89"
     inkscape:cx="68.421053"
     inkscape:cy="100"
     inkscape:window-width="3440"
     inkscape:window-height="1387"
     inkscape:window-x="0"
     inkscape:window-y="0"
     inkscape:window-maximized="1"
     inkscape:current-layer="svg163" />
  <path
     d="m 761.62482,974.98158 c -11.51124,0 -20.80344,-9.34388 -20.80344,-20.91912 V 528.4281 c 0,-11.57524 9.2922,-20.91912 20.80344,-20.91912 11.51124,0 20.80343,9.34388 20.80343,20.91912 v 425.63436 c 0,11.57524 -9.29219,20.91912 -20.80343,20.91912 z M 862.31347,895.21 c -11.51125,0 -20.80345,-9.34387 -20.80345,-20.91912 v -266.0912 c 0,-11.57524 9.2922,-20.91911 20.80345,-20.91911 11.51124,0 20.80344,9.34387 20.80344,20.91911 v 266.0912 c 0,11.57525 -9.2922,20.91912 -20.80344,20.91912 z m -199.71302,0 c -11.51124,0 -20.80345,-9.34387 -20.80345,-20.91912 v -266.0912 c 0,-11.57524 9.29221,-20.91911 20.80345,-20.91911 11.51124,0 20.80343,9.34387 20.80343,20.91911 v 266.0912 c 0,11.57525 -9.29219,20.91912 -20.80343,20.91912 z m -99.71783,-79.77157 c -11.51123,0 -20.80344,-9.34388 -20.80344,-20.91913 V 688.11072 c 0,-11.57525 9.29221,-20.91912 20.80344,-20.91912 11.51124,0 20.80344,9.34387 20.80344,20.91912 V 794.5193 c 0,11.4358 -9.2922,20.91913 -20.80344,20.91913 z m 397.62308,0 c -11.51124,0 -20.80344,-9.34388 -20.80344,-20.91913 V 688.11072 c 0,-11.57525 9.2922,-20.91912 20.80344,-20.91912 11.51124,0 20.80344,9.34387 20.80344,20.91912 V 794.5193 c 0,11.4358 -9.2922,20.91913 -20.80344,20.91913 z"
     fill="#0098f0"
     id="path157"
     style="display:inline;stroke-width:1.62978" />
  <path
     id="path159"
     style="display:inline;stroke-width:1.62978"
     d="m 522.30708,43.267912 c -11.51123,0 -20.80344,9.343884 -20.80344,20.919116 0,11.575232 9.29221,20.919116 20.80344,20.919116 217.88116,0 395.26535,178.370576 395.26535,397.463276 0,11.57523 9.29221,20.91912 20.80345,20.91912 11.51123,0 20.80344,-9.34389 20.80344,-20.91912 0,-242.24317 -195.96864,-439.301508 -436.87224,-439.301508 z M 106.23829,461.6503 c -11.511227,0 -20.803441,9.34389 -20.803441,20.91912 0,242.24316 195.968661,439.3015 436.872231,439.3015 11.51124,0 20.80345,-9.34388 20.80345,-20.91911 0,-11.57524 -9.29221,-20.91912 -20.80345,-20.91912 -217.88114,0 -395.26534,-178.37057 -395.26534,-397.46327 0,-11.57523 -9.29221,-20.91912 -20.80345,-20.91912 z" />
  <g
     id="g567"
     transform="matrix(1.6252686,0,0,1.6343063,-847.79544,-873.84192)">
    <path
       d="m 666.02667,780.8 c -7.08267,0 -12.8,-5.71733 -12.8,-12.8 V 577.024 c 0,-7.08267 5.71733,-12.8 12.8,-12.8 7.08266,0 12.8,5.71733 12.8,12.8 V 768 c 0,7.08267 -5.71734,12.8 -12.8,12.8 z"
       fill="#333333"
       id="path161" />
    <path
       id="path423"
       d="m 564.05,564.22 c -7.08259,0 -12.8,5.71741 -12.8,12.8 0,7.08259 5.71741,12.8 12.8,12.8 H 768 c 7.08259,0 12.8,-5.71741 12.8,-12.8 0,-7.08259 -5.71741,-12.8 -12.8,-12.8 z"
       style="display:inline" />
  </g>
</svg>
