<?xml version="1.0" encoding="UTF-8" standalone="no"?>
<svg
   class="icon"
   width="200px"
   height="200.00px"
   viewBox="0 0 1024 1024"
   version="1.1"
   id="svg942"
   sodipodi:docname="yeastar-to-tryton.svg"
   inkscape:version="1.2.2 (b0a8486541, 2022-12-01)"
   xmlns:inkscape="http://www.inkscape.org/namespaces/inkscape"
   xmlns:sodipodi="http://sodipodi.sourceforge.net/DTD/sodipodi-0.dtd"
   xmlns="http://www.w3.org/2000/svg"
   xmlns:svg="http://www.w3.org/2000/svg">
  <defs
     id="defs946" />
  <sodipodi:namedview
     id="namedview944"
     pagecolor="#ffffff"
     bordercolor="#000000"
     borderopacity="0.25"
     inkscape:showpageshadow="2"
     inkscape:pageopacity="0.0"
     inkscape:pagecheckerboard="0"
     inkscape:deskcolor="#d1d1d1"
     showgrid="false"
     inkscape:zoom="2.945"
     inkscape:cx="-41.086587"
     inkscape:cy="52.29202"
     inkscape:window-width="3440"
     inkscape:window-height="1387"
     inkscape:window-x="0"
     inkscape:window-y="0"
     inkscape:window-maximized="1"
     inkscape:current-layer="svg942" />
  <path
     d="m 856.25695,547.10583 h -32.16041 a 18.1903,17.92041 0 0 1 0,-35.84082 h 32.16041 c 15.13434,0 28.81345,-7.45489 36.81719,-20.07086 a 18.190297,17.920407 0 0 1 25.02984,-5.73451 c 8.58582,5.30442 11.05968,16.34341 5.82088,24.65846 a 79.251486,78.075625 0 0 1 -67.66791,36.98773 z"
     fill="#333333"
     id="path934"
     style="stroke-width:1.69264" />
  <path
     d="m 807.50697,563.44923 h -42.347 a 34.779852,34.263819 0 1 1 0,-68.52763 h 42.347 a 34.779852,34.263819 0 1 1 0,68.52763 z m 0,-32.68683 z M 515.44356,518.14644 c -29.83209,0 -53.9888,-23.79829 -53.9888,-53.18777 v -105.6587 c 0,-29.38947 24.15671,-53.18777 53.9888,-53.18777 29.83209,0 53.9888,23.7983 53.9888,53.18777 v 105.6587 c 0,29.38948 -24.15671,53.18777 -53.9888,53.18777 z m 0,-176.19344 c -9.74999,0 -17.60821,7.74161 -17.60821,17.34697 v 105.6587 c 0,9.60535 7.85822,17.34698 17.60821,17.34698 9.75,0 17.60822,-7.74163 17.60822,-17.34698 v -105.6587 c 0,-9.60536 -7.85822,-17.34697 -17.60822,-17.34697 z m 393.05595,176.19344 c -29.83208,0 -53.9888,-23.79829 -53.9888,-53.18777 v -105.6587 c 0,-29.38947 24.15672,-53.18777 53.9888,-53.18777 29.83209,0 53.98881,23.7983 53.98881,53.18777 v 105.6587 c -0.14556,29.38948 -24.44777,53.18777 -53.98881,53.18777 z m 0,-176.19344 c -9.75001,0 -17.60821,7.74161 -17.60821,17.34697 v 105.6587 c 0,9.60535 7.8582,17.34698 17.60821,17.34698 9.60447,0 17.60819,-7.885 17.60819,-17.49033 V 359.29997 c 0,-9.60536 -7.8582,-17.34697 -17.60819,-17.34697 z"
     fill="#333333"
     id="path936"
     style="stroke-width:1.69264" />
  <path
     d="m 515.44356,342.09639 h -1.01866 c -10.04105,-0.57348 -17.75371,-8.88854 -17.17163,-18.7806 5.96642,-112.68352 100.11939,-200.99528 214.64551,-200.99528 70.72388,0 136.93655,34.26382 177.10072,91.75248 a 18.204849,17.934742 0 0 1 -29.97761,20.35757 178.7597,176.10742 0 0 0 -147.12311,-76.26924 c -95.02611,0 -173.31716,73.25862 -178.26493,166.87483 -0.58207,9.60533 -8.5858,17.06024 -18.19029,17.06024 z"
     fill="#333333"
     id="path938"
     style="stroke-width:1.69264" />
  <path
     d="m 974.48641,461.90295 c 0,84.19294 -46.36676,125.98533 -139.1024,125.37463 H 568.59973 c -96.88703,0 -145.32938,-40.57099 -145.32938,-121.71503 V 176.3786 c 0,-84.197229 47.40463,-126.291636 142.21586,-126.291636 h 267.82211 c 94.11804,0 141.17809,42.400807 141.17809,127.206536 v 284.60945"
     style="line-height:125%;-inkscape-font-specification:Kimberley;text-align:start;stroke-width:2.12564"
     font-size="108.872px"
     font-weight="400"
     fill="#1b2019"
     font-family="Kimberley"
     id="path994" />
  <path
     d="m 464.19379,405.80158 c 12.80937,-6.55552 36.76786,4.12541 47.61777,21.23605 9.72811,15.3395 59.01023,29.61711 76.47261,22.15517 11.65304,-4.97747 14.59647,-11.2854 15.50723,-33.24754 1.71833,-41.30745 -7.82894,-73.65049 -38.73582,-131.22706 -15.51365,-28.89534 -31.76596,-60.85432 -36.11967,-71.00019 -4.35382,-10.1522 -16.09082,-28.07282 -26.08162,-39.82398 -21.26483,-24.99216 -21.92593,-31.82054 -4.47427,-46.32063 26.13318,-21.70818 70.2736,13.432 60.74569,48.35615 -4.68963,17.18823 4.31289,42.26225 34.12804,95.04813 35.37903,62.63798 71.23613,88.00794 92.65169,65.56115 5.53368,-5.798 12.40021,-38.14521 18.7284,-88.21786 9.51918,-75.31038 9.47183,-79.81778 -1.01196,-94.95789 -18.12559,-26.17789 -1.03353,-53.34197 27.64687,-43.94734 28.91733,9.47021 47.78357,47.79797 29.66019,60.25415 -8.0422,5.52521 -10.64109,21.59282 -14.28856,88.3374 -4.67889,85.58429 -1.14116,108.4886 18.53685,120.00271 17.48592,10.2319 23.56868,8.15232 60.43342,-20.7514 39.11697,-30.66207 55.19918,-50.50695 56.23049,-69.38854 0.96032,-17.56386 12.90195,-26.95853 31.93609,-25.12236 12.13334,1.17508 17.54857,5.05719 24.33114,17.44215 13.8471,25.29229 9.88087,41.35987 -11.22245,45.46649 -17.19758,3.34072 -46.74139,40.43674 -92.18879,115.74917 -47.9902,79.52409 -58.50849,87.80865 -112.29296,88.44234 -22.10899,0.25813 -53.04174,-6.91431 -125.86035,-29.19753 -53.1041,-16.25439 -103.44563,-30.36002 -111.87321,-31.35679 -30.45036,-3.58401 -45.61958,-50.61393 -20.47682,-63.49195 z"
     fill="#ededed"
     id="path996"
     style="stroke-width:2.12564" />
  <path
     d="m 575.29574,595.16689 c 0,0 47.05496,24.22832 43.66975,90.03779 -3.38525,65.80944 -37.57631,147.9894 -57.21075,186.6238 -19.63453,38.96184 -69.3977,66.79168 -111.37484,51.73082 -34.86808,-10.80454 -10.49427,-52.71306 -10.49427,-52.71306 0,0 10.15577,-38.6344 51.11731,-29.13947 30.46727,13.75119 34.19106,-2.29191 46.71651,-20.9543 12.5254,-18.66236 34.19102,-89.05554 31.82134,-109.0276 -2.36969,-19.97199 2.03114,-26.52019 -30.80579,-35.03288 -32.83694,-8.51264 -22.68121,-48.4567 -19.63444,-58.93383 3.72373,-10.14972 8.80159,-45.83743 56.19518,-22.59127 z"
     fill="#0098f0"
     id="path914"
     style="stroke-width:3.90141" />
  <path
     d="m 327.83373,984.13021 c -156.73712,0 -284.02265,-123.10627 -284.02265,-274.69721 0,-151.59088 127.28553,-274.69714 284.02265,-274.69714 87.00101,0 168.2471,37.9796 222.41112,103.78902 6.09344,7.20302 4.73934,17.68017 -2.70819,23.57355 -7.44761,5.89335 -18.28037,4.58376 -24.37383,-2.61929 A 248.54523,240.38456 0 0 0 327.83373,468.1317 c -137.44119,0 -249.493047,108.04538 -249.493047,241.3013 0,132.92858 111.713357,241.30137 249.493047,241.30137 30.4673,0 60.25755,-5.23862 88.35511,-15.71572 9.14021,-3.27411 18.95742,0.98224 22.34267,9.82233 3.3853,8.51264 -1.01555,18.33494 -10.15577,21.60907 -31.82137,11.78677 -65.67386,17.68016 -100.54201,17.68016 z"
     fill="#0098f0"
     id="path916"
     style="stroke-width:3.90141" />
  <path
     d="m 316.32391,645.26065 c -18.61884,-0.98226 -32.15991,-26.84768 -30.46727,-57.62422 2.03115,-30.77657 18.61888,-55.00493 37.23779,-53.69527 18.61889,0.9822 32.15989,27.17503 30.46727,57.62417 -1.69266,30.77657 -18.61891,54.67753 -37.23779,53.69532 z"
     fill="#0098f0"
     id="path918"
     style="stroke-width:3.90141" />
  <path
     d="m 317.678,646.89767 h -1.35409 c -19.63446,-0.98226 -33.85252,-27.82984 -32.15991,-59.26124 2.03118,-31.75877 19.29597,-56.64199 38.93043,-55.33228 19.63446,1.30959 33.85252,27.82984 31.82137,59.58857 -1.69266,30.7766 -17.94185,55.00495 -37.2378,55.00495 z m 4.40088,-111.31947 c -17.26479,0 -32.49845,23.57353 -34.52961,52.38563 -1.69263,29.79433 11.17135,55.00493 28.77464,55.98714 h 1.0156 c 17.26474,0 32.49842,-23.57356 34.19102,-52.38564 1.69261,-29.79428 -11.17131,-55.00489 -28.77464,-55.98713 z m -90.38629,125.72554 c 36.89926,-5.89343 69.39768,2.61928 72.10592,18.98979 2.70815,16.3705 -25.05089,34.37805 -61.95012,40.59886 -36.89928,5.89339 -69.3977,-2.61925 -72.10589,-18.98983 -2.70822,-16.37047 25.05084,-34.70547 61.95009,-40.59882 z"
     fill="#0098f0"
     id="path920"
     style="stroke-width:3.90141" />
  <path
     d="m 218.82865,724.16648 c -28.09759,0 -48.40914,-8.84007 -50.77879,-22.26392 -3.04671,-17.3527 25.38939,-36.34253 63.30419,-42.5633 7.78608,-1.30963 15.57223,-1.96446 23.35826,-1.96446 28.43609,0 48.40912,8.84009 50.77879,22.26392 1.3541,8.51262 -4.40083,17.68014 -16.92623,25.86536 -11.84843,7.85787 -28.43611,13.75126 -46.37796,16.69794 a 142.1806,137.51228 0 0 1 -23.35826,1.96446 z m 35.88366,-63.19017 c -7.44754,0 -14.8951,0.65482 -22.6812,1.96447 -35.54513,5.56598 -63.30417,23.2461 -60.59598,38.63443 2.03114,11.78674 20.98856,19.64457 47.39352,19.64457 7.44754,0 14.8951,-0.65482 22.6812,-1.96444 17.60333,-2.94671 33.85252,-8.51269 45.02387,-16.04309 11.17135,-7.20308 16.58771,-15.38829 15.23361,-22.59131 -1.69263,-11.78678 -20.65006,-19.64463 -47.05502,-19.64463 z m 174.34049,29.13947 c 34.5296,-14.73341 56.8723,-39.61661 49.4247,-55.98711 -7.10904,-16.0431 -41.30006,-17.35271 -75.82966,-2.94668 -34.52956,14.73342 -56.87224,39.94404 -49.4247,55.98713 7.10906,16.37054 41.30012,17.68014 75.82966,2.94666 z"
     fill="#0098f0"
     id="path922"
     style="stroke-width:3.90141" />
  <path
     d="m 383.69041,702.22999 c -16.24919,0 -28.09755,-5.23854 -32.15988,-14.07865 -7.78606,-17.02531 14.89514,-43.21813 50.44027,-58.27902 15.91072,-6.54818 32.15986,-10.47711 46.03945,-10.47711 16.24919,0 28.09755,5.23858 32.15988,14.07867 7.44756,17.02529 -14.89509,43.21811 -50.44023,58.279 -15.91071,6.5482 -32.15995,10.47711 -46.03949,10.47711 z m 64.31984,-79.23326 c -13.54105,0 -29.4517,3.60154 -45.02389,10.1497 -33.17544,14.07867 -55.51808,38.63442 -48.74762,53.69528 3.38527,7.53049 13.87954,12.11419 28.77466,12.11419 13.54097,0 29.45169,-3.6015 44.68533,-10.14974 33.17548,-14.07861 55.51811,-38.63436 48.74761,-54.02267 -2.70819,-7.53045 -13.20246,-11.78676 -28.43609,-11.78676 z"
     fill="#0098f0"
     id="path924"
     style="stroke-width:3.90141" />
  <path
     d="m 274.68533,745.44816 c -14.55657,-7.53046 -35.88369,19.64461 -47.39358,60.57085 -11.50981,40.92629 -9.14016,80.54291 5.75494,88.07339 14.5566,7.53042 35.88368,-19.64465 47.39357,-60.57089 11.50984,-41.25371 9.14017,-80.54294 -5.75493,-88.07335 z"
     fill="#0098f0"
     id="path926"
     style="stroke-width:3.90141" />
  <path
     d="m 238.12458,897.03906 c -2.03116,0 -4.06229,-0.32712 -6.09347,-1.30962 -15.57211,-7.85785 -18.28034,-47.47451 -6.43196,-90.03785 10.15578,-36.66992 28.77466,-63.19013 44.00825,-63.19013 2.03116,0 4.06233,0.65481 5.75497,1.63705 15.57218,7.85781 18.28037,47.47447 6.43198,89.71039 -10.15579,36.66995 -28.43609,63.19016 -43.66977,63.19016 z M 269.6074,745.77555 c -13.54095,0 -30.80576,26.19285 -40.623,60.57089 -11.17135,39.61662 -8.8017,79.23326 4.73935,86.10886 1.35412,0.65482 2.70819,0.98225 4.40083,0.98225 13.541,0 30.80579,-26.19281 40.62304,-60.57085 11.1713,-39.61666 8.80165,-79.23328 -4.73937,-86.10895 a 9.3771478,9.0692613 0 0 0 -4.40085,-0.9822 z"
     fill="#0098f0"
     id="path928"
     style="stroke-width:3.90141" />
  <path
     d="m 369.13386,731.69693 c 19.97298,0 36.22221,21.28164 36.22221,47.80183 0,26.19283 -16.24923,47.47451 -36.22221,47.47451 -19.97301,0 -36.22224,-21.28168 -36.22224,-47.47451 0,-26.52019 16.24923,-47.80183 36.22224,-47.80183 z"
     fill="#0098f0"
     id="path930"
     style="stroke-width:3.90141" />
  <path
     d="m 369.13386,828.61032 c -20.98856,0 -37.91481,-21.93645 -37.91481,-49.11156 0,-27.17501 16.92625,-49.43889 37.91481,-49.43889 20.98858,0 37.9148,22.26388 37.9148,49.43889 0,27.17511 -16.92622,49.11156 -37.9148,49.11156 z m 0,-95.27638 c -18.95743,0 -34.52961,20.62683 -34.52961,46.16482 0,25.21063 15.57218,45.83747 34.52961,45.83747 18.95742,0 34.52953,-20.62684 34.52953,-45.83747 0,-25.53799 -15.23361,-46.16482 -34.52953,-46.16482 z"
     fill="#0098f0"
     id="path932"
     style="stroke-width:3.90141" />
</svg>
