<?xml version="1.0" encoding="UTF-8" standalone="no"?>
<svg
   class="icon"
   width="200px"
   height="200.00px"
   viewBox="0 0 1024 1024"
   version="1.1"
   id="svg782"
   sodipodi:docname="yeastar.svg"
   inkscape:version="1.2.2 (b0a8486541, 2022-12-01)"
   xmlns:inkscape="http://www.inkscape.org/namespaces/inkscape"
   xmlns:sodipodi="http://sodipodi.sourceforge.net/DTD/sodipodi-0.dtd"
   xmlns="http://www.w3.org/2000/svg"
   xmlns:svg="http://www.w3.org/2000/svg">
  <defs
     id="defs786" />
  <sodipodi:namedview
     id="namedview784"
     pagecolor="#ffffff"
     bordercolor="#000000"
     borderopacity="0.25"
     inkscape:showpageshadow="2"
     inkscape:pageopacity="0.0"
     inkscape:pagecheckerboard="0"
     inkscape:deskcolor="#d1d1d1"
     showgrid="false"
     inkscape:zoom="5.89"
     inkscape:cx="100.16978"
     inkscape:cy="100"
     inkscape:window-width="3440"
     inkscape:window-height="1387"
     inkscape:window-x="0"
     inkscape:window-y="0"
     inkscape:window-maximized="1"
     inkscape:current-layer="svg782" />
  <path
     d="m 910.59677,316.5794 a 159.75904,163.34512 0 0 1 71.64602,155.96062 c -5.20011,114.01667 -61.53469,256.38983 -93.89095,324.918 -32.35628,68.52814 -115.55809,116.08433 -182.58178,88.61399 -57.77902,-18.90432 -17.04479,-91.56779 -17.04479,-91.56779 a 67.601475,69.118914 0 0 1 84.06848,-50.50997 c 49.97889,23.92576 57.77906,-3.83994 76.84615,-36.03636 a 523.47808,535.22853 0 0 0 52.29003,-189.0432 c -3.75567,-34.85484 3.46672,-46.07927 -50.26777,-60.84829 -53.73451,-14.76899 -37.2675,-84.18327 -32.06736,-102.20148 5.20011,-18.01815 13.57803,-79.75257 91.00197,-39.28552 z"
     fill="#0098f0"
     id="path758"
     style="stroke-width:3.42328" />
  <path
     d="m 504.98792,991.52266 a 466.27683,476.74327 0 1 1 365.16353,-772.71404 28.889519,29.537998 0 0 1 -44.77876,36.03637 409.07559,418.25804 0 1 0 -175.35937,651.31285 28.889519,29.537998 0 1 1 20.22263,54.34991 466.56573,477.03867 0 0 1 -165.24803,31.01491 z"
     fill="#0098f0"
     id="path760"
     style="stroke-width:3.42328" />
  <path
     d="m 485.92082,403.42112 c -30.62288,-1.77229 -52.86779,-46.96543 -49.68995,-100.13383 3.17786,-53.16838 30.33399,-95.11235 60.95686,-93.34006 30.62292,1.77226 52.86784,46.96542 49.68999,100.1338 -3.17785,53.16839 -30.33397,95.11236 -60.9569,93.34009 z"
     fill="#0098f0"
     id="path762"
     style="stroke-width:3.42328" />
  <path
     d="m 487.94309,406.96568 h -2.02227 c -32.06733,-2.06766 -55.75674,-48.44232 -52.5789,-103.08762 3.17786,-54.64531 31.48956,-98.06618 64.13472,-95.99849 32.64514,2.06766 55.46787,48.14693 52.29003,103.08761 -3.17785,54.94069 -30.33399,95.9985 -61.82358,95.9985 z m 7.22238,-193.47391 c -28.8895,0 -53.44562,40.46709 -56.33457,90.68165 -2.88895,50.21461 18.20044,95.11237 47.08992,96.88465 h 2.02227 c 28.88953,0 53.44561,-40.76244 57.77906,-90.68164 4.33342,-49.91924 -18.20041,-95.40774 -47.37881,-97.18003 z M 346.96224,431.18686 c 60.37911,-10.33834 113.53582,4.43066 118.15814,32.78713 4.62232,28.3565 -41.0231,59.07602 -101.6911,70.30047 -60.66801,11.22441 -113.53581,-4.43072 -118.15814,-32.78719 -4.62232,-28.35647 41.02312,-60.25752 101.6911,-70.30041 z"
     fill="#0098f0"
     id="path764"
     style="stroke-width:3.42328" />
  <path
     d="m 326.73958,540.47742 c -46.22323,0 -79.73506,-15.65514 -83.20181,-38.69478 -4.91122,-29.53797 41.60091,-62.91593 103.71338,-73.5496 a 248.44987,254.02679 0 0 1 37.26747,-3.2492 c 46.80104,0 79.73509,15.06441 83.49071,38.39942 2.31117,15.06436 -7.51127,31.01489 -28.88951,44.89775 a 193.55977,197.90459 0 0 1 -76.26833,29.538 217.53808,222.42113 0 0 1 -36.11191,2.65841 z m 57.77904,-109.88135 a 237.47185,242.80234 0 0 0 -37.26747,3.24918 c -57.77903,9.74752 -103.42447,40.46705 -99.09106,67.05124 3.17786,20.38123 34.37854,33.9687 77.71279,33.9687 a 237.47185,242.80234 0 0 0 37.2675,-3.24916 192.69309,197.01845 0 0 0 73.95718,-28.0611 c 18.48927,-12.70134 28.88952,-26.5842 25.42275,-38.99015 -3.46672,-20.38124 -34.6674,-33.96871 -78.00169,-33.96871 z m 286.29516,50.80534 c 57.779,-25.40265 93.31312,-68.8235 81.46842,-97.17998 -11.8447,-28.35647 -67.89038,-29.53802 -124.80271,-4.72609 -56.91236,24.81191 -93.31314,68.82352 -81.17955,97.18001 12.1336,28.35648 69.33483,30.12874 124.51384,4.72606 z"
     fill="#0098f0"
     id="path766"
     style="stroke-width:3.42328" />
  <path
     d="m 596.27881,501.78264 c -26.86728,0 -46.22324,-8.86139 -52.57894,-24.22116 -12.7114,-29.53799 24.55609,-74.73112 82.62404,-100.72456 a 197.8932,202.33529 0 0 1 75.97942,-18.01819 c 26.86726,0 45.93434,8.86142 52.29004,24.22115 12.71139,29.53803 -24.55609,74.73116 -82.62404,101.01997 a 197.02652,201.44914 0 0 1 -75.69052,17.72279 z M 702.30333,364.72635 a 186.0485,190.2247 0 0 0 -73.66829,17.4274 c -54.60116,24.22116 -91.00196,67.05124 -80.02397,93.34008 5.77793,13.2921 23.11164,20.67658 47.66774,20.67658 a 189.80414,194.06464 0 0 0 73.37937,-17.4274 c 54.60121,-24.22116 91.29088,-67.05126 80.02396,-93.34007 -5.77791,-13.29211 -22.8227,-20.67659 -47.37881,-20.67659 z M 417.74157,577.10453 c -23.97831,-13.29208 -57.77903,34.26411 -77.71282,105.15528 -19.93375,70.89118 -14.73364,139.71475 9.24465,152.71146 23.97831,12.9967 57.77904,-34.26407 77.71283,-105.15529 19.93374,-70.89117 15.31145,-139.71471 -9.24466,-152.71145 z"
     fill="#0098f0"
     id="path768"
     style="stroke-width:3.42328" />
  <path
     d="m 357.65137,839.99272 a 18.200397,18.608938 0 0 1 -9.53352,-2.6584 C 322.40614,823.45145 317.78384,754.92328 337.42871,681.66905 354.18464,618.16237 384.51862,572.08308 409.3636,572.08308 a 23.400509,23.925779 0 0 1 9.82244,2.36305 c 25.42278,13.88287 28.88953,82.411 10.40022,155.96063 -16.17812,63.5067 -47.08989,109.58596 -71.93489,109.58596 z M 409.3636,577.69529 c -21.95603,0 -50.84556,45.19313 -66.73477,105.15529 -18.2004,68.82354 -14.44477,137.35169 8.08906,149.75766 a 13.866969,14.178239 0 0 0 6.93348,1.77229 c 22.24495,0 50.84556,-45.19317 66.73479,-105.45068 18.20041,-68.82354 14.44477,-137.05629 -7.80017,-149.46226 a 16.467026,16.836659 0 0 0 -7.22239,-1.7723 z m 163.22581,-23.03965 c 32.64514,0 59.5124,37.21792 59.5124,82.70641 -2e-5,45.48853 -26.86726,82.70641 -59.5124,82.70641 -32.64516,0 -59.51244,-37.21788 -59.51244,-82.70641 0,-45.48849 26.86728,-82.70641 59.51244,-82.70641 z"
     fill="#0098f0"
     id="path770"
     style="stroke-width:3.42328" />
  <path
     d="m 572.58941,721.24996 c -34.37853,0 -62.11247,-38.10402 -62.11247,-85.3648 0,-47.26081 28.88949,-85.36481 62.11247,-85.36481 33.22294,0 62.11246,38.39939 62.11245,85.36481 0,46.96542 -27.73393,85.3648 -62.11245,85.3648 z m 0,-165.11738 c -31.20071,0 -57.77906,35.74098 -57.77906,79.75258 0,44.0116 25.4228,79.75259 57.77906,79.75259 32.35627,0 57.77903,-35.74099 57.77903,-79.75259 0,-44.0116 -26.57837,-79.75258 -57.77903,-79.75258 z"
     fill="#0098f0"
     id="path772"
     style="stroke-width:3.42328" />
</svg>
